<svg width="200" height="59" viewBox="0 0 200 59" fill="none" xmlns="http://www.w3.org/2000/svg">
<g clip-path="url(#clip0)">
<g filter="url(#filter0_d)">
<path d="M94.4414 30.0928H87.8779V37H85.8154V21.3594H95.5049V23.0566H87.8779V28.4062H94.4414V30.0928ZM100.188 37H98.126V21.3594H100.188V37ZM115.99 37H113.917L106.043 24.9473V37H103.97V21.3594H106.043L113.938 33.4658V21.3594H115.99V37ZM119.653 37V21.3594H124.068C125.429 21.3594 126.632 21.6602 127.678 22.2617C128.723 22.8633 129.529 23.7191 130.095 24.8291C130.668 25.9391 130.958 27.2139 130.965 28.6533V29.6523C130.965 31.1276 130.678 32.4202 130.105 33.5303C129.54 34.6403 128.727 35.4925 127.667 36.0869C126.614 36.6813 125.386 36.9857 123.982 37H119.653ZM121.716 23.0566V35.3135H123.886C125.476 35.3135 126.711 34.8193 127.592 33.8311C128.48 32.8428 128.924 31.4355 128.924 29.6094V28.6963C128.924 26.9202 128.505 25.5417 127.667 24.5605C126.836 23.5723 125.655 23.071 124.122 23.0566H121.716ZM139.548 37V21.3594H144.661C146.358 21.3594 147.633 21.7103 148.485 22.4121C149.345 23.1139 149.774 24.1523 149.774 25.5273C149.774 26.2578 149.567 26.9059 149.151 27.4717C148.736 28.0303 148.17 28.4635 147.454 28.7715C148.299 29.0078 148.965 29.459 149.452 30.125C149.946 30.7839 150.193 31.5716 150.193 32.4883C150.193 33.8919 149.739 34.9948 148.829 35.7969C147.92 36.599 146.634 37 144.973 37H139.548ZM141.61 29.6846V35.3135H145.016C145.975 35.3135 146.731 35.0664 147.282 34.5723C147.841 34.071 148.12 33.3835 148.12 32.5098C148.12 30.6263 147.096 29.6846 145.048 29.6846H141.61ZM141.61 28.0303H144.726C145.628 28.0303 146.348 27.8047 146.885 27.3535C147.429 26.9023 147.701 26.29 147.701 25.5166C147.701 24.6572 147.451 24.0342 146.949 23.6475C146.448 23.2536 145.685 23.0566 144.661 23.0566H141.61V28.0303ZM155.468 37H153.405V21.3594H155.468V37ZM163.224 29.7275L161.312 31.7148V37H159.249V21.3594H161.312V29.0938L168.262 21.3594H170.754L164.599 28.2666L171.237 37H168.767L163.224 29.7275ZM181.883 29.7705H175.104V35.3135H182.979V37H173.042V21.3594H182.871V23.0566H175.104V28.084H181.883V29.7705Z" fill="black"/>
</g>
<g filter="url(#filter1_d)">
<path d="M20.4724 6C18.4724 6.8 14.3057 10.6667 12.4724 12.5C11.6391 13.3333 9.67239 15.6 8.47239 18C7.27239 20.4 8.63905 21.6667 9.47239 22C9.80572 23 11.5724 24 15.9724 20C20.3724 16 29.4724 15 33.4724 15C31.3057 18.6667 26.7724 26.3 25.9724 27.5C24.9724 29 24.9724 29 22.4724 29C19.9724 29 15.9724 29 15.4724 32.5C15.0724 35.3 18.6391 36 20.4724 36C19.4724 37.6667 16.7724 42.3 13.9724 47.5C10.4724 54 15.9724 55.5 21.4724 56C25.8724 56.4 29.3057 53.5 30.4724 52L36.4724 37L53.4724 37.5C54.3057 37.3333 56.3724 36.1 57.9724 32.5C59.5724 28.9 56.6391 27.6667 54.9724 27.5L39.9724 28L47.4724 15C51.9724 16.3333 62.8724 17.4 70.4724 11C79.9724 3 72.4724 2 71.4724 2C70.6724 2 67.4724 2.66667 65.9724 3C62.6391 3.16667 53.1724 3.5 41.9724 3.5C27.9724 3.5 22.9724 5 20.4724 6Z" fill="#1471B4"/>
</g>
</g>
<defs>
<filter id="filter0_d" x="81.8154" y="18.3594" width="105.163" height="23.6406" filterUnits="userSpaceOnUse" color-interpolation-filters="sRGB">
<feFlood flood-opacity="0" result="BackgroundImageFix"/>
<feColorMatrix in="SourceAlpha" type="matrix" values="0 0 0 0 0 0 0 0 0 0 0 0 0 0 0 0 0 0 127 0"/>
<feOffset dy="1"/>
<feGaussianBlur stdDeviation="2"/>
<feColorMatrix type="matrix" values="0 0 0 0 0 0 0 0 0 0 0 0 0 0 0 0 0 0 0.25 0"/>
<feBlend mode="normal" in2="BackgroundImageFix" result="effect1_dropShadow"/>
<feBlend mode="normal" in="SourceGraphic" in2="effect1_dropShadow" result="shape"/>
</filter>
<filter id="filter1_d" x="4" y="-1" width="75.2275" height="62.0375" filterUnits="userSpaceOnUse" color-interpolation-filters="sRGB">
<feFlood flood-opacity="0" result="BackgroundImageFix"/>
<feColorMatrix in="SourceAlpha" type="matrix" values="0 0 0 0 0 0 0 0 0 0 0 0 0 0 0 0 0 0 127 0"/>
<feOffset dy="1"/>
<feGaussianBlur stdDeviation="2"/>
<feColorMatrix type="matrix" values="0 0 0 0 0 0 0 0 0 0 0 0 0 0 0 0 0 0 0.25 0"/>
<feBlend mode="normal" in2="BackgroundImageFix" result="effect1_dropShadow"/>
<feBlend mode="normal" in="SourceGraphic" in2="effect1_dropShadow" result="shape"/>
</filter>
<clipPath id="clip0">
<rect width="200" height="59" fill="white"/>
</clipPath>
</defs>
</svg>
